<?xml version="1.0" encoding="UTF-8" standalone="no"?>
<svg
   class="svg-inline--fa fa-volleyball"
   data-prefix="fas"
   data-icon="volleyball"
   role="img"
   viewBox="0 0 512 512"
   aria-hidden="true"
   data-fa-i2svg=""
   version="1.1"
   id="svg1"
   sodipodi:docname="logo.svg"
   inkscape:version="1.4.2 (ebf0e940, 2025-05-08)"
   xmlns:inkscape="http://www.inkscape.org/namespaces/inkscape"
   xmlns:sodipodi="http://sodipodi.sourceforge.net/DTD/sodipodi-0.dtd"
   xmlns="http://www.w3.org/2000/svg"
   xmlns:svg="http://www.w3.org/2000/svg">
  <defs
     id="defs1" />
  <sodipodi:namedview
     id="namedview1"
     pagecolor="#505050"
     bordercolor="#eeeeee"
     borderopacity="1"
     inkscape:showpageshadow="0"
     inkscape:pageopacity="0"
     inkscape:pagecheckerboard="0"
     inkscape:deskcolor="#505050"
     inkscape:zoom="0.62591279"
     inkscape:cx="472.90933"
     inkscape:cy="329.91817"
     inkscape:window-width="1744"
     inkscape:window-height="1102"
     inkscape:window-x="63"
     inkscape:window-y="39"
     inkscape:window-maximized="0"
     inkscape:current-layer="svg1"
     inkscape:export-bgcolor="#f5c2cb00" />
  <circle
     style="fill:#f5c2cb;stroke:none"
     id="path2"
     cx="256"
     cy="256"
     r="256" />
  <path
     fill="black"
     d="M512 258.9c-23.4 8-47.8 13.1-72.6 15.1 5.9-98.6-30.7-191.1-94.9-258.3 97.8 36 167.5 130 167.5 240.3 0 1 0 1.9 0 2.9zm-5.9 52c-5.2 23.7-13.6 46.2-24.9 66.9-94.7 52.2-214 50-308.4-13.6 21.7-31.3 49.8-58.9 83.8-80.5 79.5 41.6 168.5 49.1 249.5 27.1zM279.7 241.6c-3.7-89.7-41.7-170.5-101.3-229.7 22.3-7.1 46-11.2 70.5-11.9 92.5 55.9 150.3 160.3 142.4 273.8-38-3.2-75.9-13.7-111.6-32.3zM130.5 32.8C149.1 49.1 165.8 67.7 179.9 88.2 91.5 132.3 29.7 210.3 3.7 299.5 1.3 285.3 0 270.8 0 256 0 160.2 52.6 76.7 130.5 32.8zm73.4 97c16.3 34.5 26.1 72.6 27.9 112.8-75.8 48-126.8 121.3-148.3 202.5-17.6-16.1-33-34.6-45.5-55 2.1-108.1 63.7-210.4 165.9-260.3zM256 512c-47.7 0-92.3-13-130.5-35.7 4.8-24.3 12.6-48 23.2-70.4 82.4 54.4 180.8 68.9 271 47-44.4 37-101.5 59.2-163.7 59.2z"
     id="path1" />
</svg>
